<mxfile host="app.diagrams.net" modified="2024-03-26T08:36:55.295Z" agent="Mozilla/5.0 (Windows NT 10.0; Win64; x64) AppleWebKit/537.36 (KHTML, like Gecko) Chrome/122.0.0.0 Safari/537.36 Edg/122.0.0.0" etag="NC5AZ-7vzXNCn1epIyRy" version="24.1.0" type="device">
  <diagram name="Page-1" id="sNq4YZPpJeUCfxuJUTN8">
    <mxGraphModel dx="1386" dy="793" grid="1" gridSize="10" guides="1" tooltips="1" connect="1" arrows="1" fold="1" page="1" pageScale="1" pageWidth="850" pageHeight="1100" math="0" shadow="0">
      <root>
        <mxCell id="0" />
        <mxCell id="1" parent="0" />
        <mxCell id="RgCflmbM_aNfysVHpsiT-3" style="edgeStyle=orthogonalEdgeStyle;rounded=0;orthogonalLoop=1;jettySize=auto;html=1;exitX=0.5;exitY=1;exitDx=0;exitDy=0;entryX=0.5;entryY=0;entryDx=0;entryDy=0;" edge="1" parent="1" source="RgCflmbM_aNfysVHpsiT-1" target="RgCflmbM_aNfysVHpsiT-2">
          <mxGeometry relative="1" as="geometry" />
        </mxCell>
        <mxCell id="RgCflmbM_aNfysVHpsiT-1" value="Start" style="rounded=1;whiteSpace=wrap;html=1;" vertex="1" parent="1">
          <mxGeometry x="385" y="40" width="80" height="40" as="geometry" />
        </mxCell>
        <mxCell id="RgCflmbM_aNfysVHpsiT-5" style="edgeStyle=orthogonalEdgeStyle;rounded=0;orthogonalLoop=1;jettySize=auto;html=1;exitX=0.5;exitY=1;exitDx=0;exitDy=0;entryX=0.5;entryY=0;entryDx=0;entryDy=0;" edge="1" parent="1" source="RgCflmbM_aNfysVHpsiT-2" target="RgCflmbM_aNfysVHpsiT-4">
          <mxGeometry relative="1" as="geometry" />
        </mxCell>
        <mxCell id="RgCflmbM_aNfysVHpsiT-2" value="Router" style="ellipse;whiteSpace=wrap;html=1;aspect=fixed;" vertex="1" parent="1">
          <mxGeometry x="385" y="120" width="80" height="80" as="geometry" />
        </mxCell>
        <mxCell id="RgCflmbM_aNfysVHpsiT-4" value="/" style="rounded=0;whiteSpace=wrap;html=1;" vertex="1" parent="1">
          <mxGeometry x="405" y="240" width="40" height="40" as="geometry" />
        </mxCell>
      </root>
    </mxGraphModel>
  </diagram>
</mxfile>
